<?xml version="1.0" standalone="no"?>
<!DOCTYPE svg PUBLIC "-//W3C//DTD SVG 20010904//EN"
 "http://www.w3.org/TR/2001/REC-SVG-20010904/DTD/svg10.dtd">
<svg version="1.0" xmlns="http://www.w3.org/2000/svg"
 width="655.000000pt" height="655.000000pt" viewBox="0 0 655.000000 655.000000"
 preserveAspectRatio="xMidYMid meet">
<metadata>
Created by potrace 1.14, written by Peter Selinger 2001-2017
</metadata>
<g transform="translate(0.000000,655.000000) scale(0.100000,-0.100000)"
fill="#000000" stroke="none">
<path d="M2400 5988 c0 -7 -10 -18 -22 -23 -32 -14 -32 -65 0 -81 33 -16 34
-18 16 -60 -9 -21 -18 -54 -20 -74 -7 -58 -14 -72 -32 -65 -9 3 -14 3 -10 0 8
-8 -15 -31 -60 -63 -18 -13 -32 -29 -31 -35 3 -24 -1 -36 -18 -53 -10 -9 -18
-22 -19 -28 0 -6 -2 -17 -2 -24 -1 -9 -9 -11 -22 -7 -15 5 -22 0 -29 -18 -10
-25 -53 -44 -59 -27 -6 17 -31 11 -42 -9 -5 -11 -10 -35 -10 -54 0 -23 -8 -41
-24 -56 l-25 -23 21 -29 c18 -24 20 -37 15 -89 -4 -35 -14 -68 -23 -77 -11
-12 -14 -25 -9 -47 3 -17 8 -98 11 -179 2 -82 6 -152 9 -156 2 -4 5 -69 6
-144 2 -95 -1 -141 -9 -149 -7 -7 -12 -17 -12 -23 0 -5 5 -3 10 5 7 11 9 8 9
-15 0 -16 1 -41 3 -55 2 -18 -2 -25 -17 -28 -11 -3 -33 -15 -51 -28 -19 -15
-49 -26 -81 -29 -31 -3 -78 -19 -119 -40 -38 -19 -83 -35 -101 -35 -17 0 -38
-6 -45 -13 -16 -16 -118 -67 -134 -67 -6 0 -55 -14 -109 -30 -54 -17 -168 -44
-254 -61 -86 -17 -180 -42 -210 -55 -30 -14 -86 -29 -125 -35 -82 -11 -100
-23 -71 -46 19 -14 19 -15 1 -26 -64 -40 -67 -46 -61 -106 8 -77 16 -274 22
-536 l5 -220 -46 -18 c-35 -15 -53 -17 -74 -9 -22 8 -38 5 -70 -9 -22 -11 -52
-23 -66 -29 l-25 -9 6 -105 c7 -121 17 -111 -117 -120 -67 -5 -77 -8 -97 -33
-13 -15 -23 -34 -23 -40 0 -15 47 -18 52 -3 2 6 8 6 18 -1 13 -8 13 -11 -3
-20 -15 -9 -17 -18 -12 -50 7 -38 6 -39 -25 -39 -42 0 -122 -20 -137 -34 -9
-8 -10 -44 -6 -129 l6 -118 40 6 c27 5 49 18 70 41 34 40 55 38 101 -7 l28
-29 -48 0 c-59 0 -96 -9 -88 -21 7 -12 177 -12 240 0 27 5 84 12 126 16 l77 7
-4 -173 c-5 -189 -10 -272 -28 -479 -7 -74 -9 -162 -6 -195 4 -33 4 -64 1 -70
-3 -5 -7 -19 -8 -32 -2 -20 2 -23 36 -23 35 0 39 3 58 43 11 23 27 51 36 62
15 18 17 19 26 3 8 -13 16 -15 43 -7 17 5 45 19 61 30 31 23 37 20 58 -33 5
-16 14 -28 19 -28 5 0 9 -11 9 -23 0 -52 36 -42 45 12 6 35 9 38 42 39 51 2
54 -4 31 -47 -24 -46 -19 -76 12 -66 12 4 26 2 33 -3 16 -12 104 -20 142 -13
20 4 31 13 35 31 4 16 21 33 50 48 25 13 46 28 48 33 6 16 112 -17 112 -34 0
-5 12 -7 28 -5 23 3 27 8 30 41 3 37 33 77 67 90 9 4 14 11 11 16 -3 5 1 12
10 15 25 10 31 7 37 -14 6 -25 33 -26 87 -4 46 19 57 13 62 -31 3 -26 7 -30
33 -31 46 -1 66 21 59 67 -4 21 -4 45 0 54 5 15 9 14 32 -4 35 -28 48 -26 65
5 14 28 15 31 17 78 2 25 5 28 29 23 15 -3 72 -1 127 4 110 9 126 4 109 -33
-8 -18 -7 -26 3 -36 8 -7 14 -25 14 -40 0 -69 21 -89 55 -52 18 20 18 20 36
-6 10 -16 28 -28 43 -30 14 -1 33 -10 42 -19 9 -9 23 -14 31 -11 8 3 17 6 19
6 2 0 4 13 4 29 0 25 5 30 26 33 22 2 27 9 29 36 2 18 6 36 10 40 4 4 5 -17 2
-47 -7 -59 3 -81 34 -81 24 0 33 51 20 112 -6 26 -9 53 -7 60 2 7 7 25 10 41
6 27 8 27 72 26 47 -1 67 -6 71 -16 3 -9 12 -11 22 -7 31 13 95 3 118 -18 24
-22 37 -18 73 25 13 15 24 17 68 11 48 -6 52 -9 52 -33 1 -31 9 -101 15 -118
2 -6 18 -14 35 -18 27 -6 37 -1 81 40 47 44 137 95 170 95 8 0 21 6 27 13 7 6
32 13 55 13 71 2 143 28 176 62 16 18 34 32 39 32 6 0 12 10 14 23 2 12 8 22
14 22 7 0 33 18 58 41 38 34 47 48 48 78 1 20 4 36 8 36 10 0 43 -178 36 -196
-3 -8 3 -25 14 -37 17 -18 24 -19 40 -9 16 10 21 9 29 -5 9 -16 17 -16 133 0
67 9 152 20 188 23 36 4 73 11 84 16 12 7 22 6 29 -1 8 -8 17 -5 34 11 13 12
23 17 23 12 0 -5 123 -9 298 -10 163 -1 332 -6 375 -13 95 -13 320 -14 399 -2
31 5 100 12 155 16 125 8 205 23 200 38 -4 13 8 26 38 43 23 13 54 64 48 80
-2 6 3 14 11 17 9 4 14 12 11 19 -2 7 -6 54 -9 103 -6 103 -8 116 -29 205 -9
36 -19 87 -22 114 -3 27 -7 52 -10 56 -3 4 -7 66 -10 136 -3 71 -10 156 -16
189 -6 34 -12 237 -15 474 -3 336 -6 418 -18 435 -7 12 -14 47 -15 77 0 29 -5
115 -11 188 -6 85 -6 137 0 141 14 9 15 72 1 98 -17 32 -62 48 -73 27 -5 -8
-21 -15 -36 -14 -48 2 -87 -16 -88 -39 -1 -11 4 -20 10 -19 6 1 10 -6 8 -16
-2 -11 3 -24 11 -30 10 -8 17 -41 21 -99 l6 -86 -53 -8 c-100 -14 -166 -8
-192 16 -26 25 -37 67 -24 91 16 31 -13 42 -83 31 -37 -5 -139 -6 -248 -1
-102 4 -205 6 -230 3 -25 -2 -92 -6 -150 -9 -80 -3 -107 -8 -116 -20 -18 -24
-94 -25 -94 -1 0 7 -9 16 -20 19 -22 6 -40 -18 -40 -53 0 -11 -6 -33 -14 -49
-15 -27 -15 -27 -83 -18 -37 5 -86 10 -108 10 -44 2 -44 1 -30 -78 11 -64 18
-251 11 -309 -7 -53 -8 -54 -45 -60 -82 -13 -174 -18 -180 -9 -3 4 -24 13 -46
20 -22 6 -63 19 -91 29 l-52 19 -8 90 -9 90 -51 6 c-29 4 -57 10 -63 13 -6 4
-25 0 -42 -8 -17 -8 -84 -38 -150 -67 l-119 -51 -43 15 c-55 20 -198 80 -215
91 -10 6 -11 25 -7 74 3 37 8 97 9 133 2 37 9 76 15 88 12 22 8 100 -7 141 -5
14 -8 57 -5 96 l3 70 -62 22 c-35 13 -81 21 -103 20 l-40 -3 -5 230 c-9 419
-6 723 8 737 19 19 15 24 -48 52 -70 32 -80 43 -45 52 34 8 32 19 -7 30 -18 6
-34 15 -34 22 -3 25 -5 27 -13 14 -12 -20 -61 49 -54 77 4 14 -2 30 -15 44
-11 12 -23 33 -27 47 -4 14 -33 50 -65 80 -41 39 -61 67 -69 95 -7 26 -20 46
-38 57 -25 15 -29 26 -38 90 -9 64 -13 73 -32 76 -14 2 -23 -2 -23 -10z"/>
<path d="M3242 5595 c-29 -15 -72 -50 -97 -78 -130 -149 -116 -366 31 -496 65
-57 132 -80 219 -77 81 4 121 18 189 70 l48 38 37 -35 c71 -66 166 -89 259
-62 65 20 114 58 151 119 102 169 -20 393 -219 401 -146 6 -272 -115 -272
-262 0 -32 5 -71 11 -87 11 -27 10 -28 -6 -15 -10 8 -24 22 -32 32 -13 18 -14
18 -35 -1 -90 -83 -201 -83 -280 0 -30 32 -54 108 -50 160 9 123 112 206 227
184 19 -4 55 -22 79 -41 l45 -34 43 46 c52 53 50 59 -36 118 -57 39 -60 40
-159 43 -92 3 -104 1 -153 -23z m662 -270 c35 -17 60 -53 71 -102 14 -68 -51
-143 -124 -143 -104 0 -162 129 -94 210 42 51 90 62 147 35z"/>
<path d="M4726 5590 c-29 -26 -48 -64 -50 -103 -1 -13 -28 -26 -43 -20 -15 6
-15 6 -17 -75 l-2 -64 28 4 28 5 0 -194 0 -193 70 0 70 0 0 190 c0 174 1 190
18 191 9 1 24 2 32 3 19 1 53 91 51 138 0 20 4 40 9 43 6 3 10 4 10 2 0 -2 37
-110 81 -238 45 -129 88 -255 96 -281 l15 -48 63 0 64 0 36 108 c20 59 48 143
62 186 21 62 28 75 35 60 4 -10 33 -94 64 -186 l56 -168 62 0 62 0 26 78 c14
42 65 189 112 326 47 137 86 253 86 258 0 5 -32 8 -71 6 l-71 -3 -68 -195
c-36 -107 -69 -201 -71 -208 -2 -7 -31 67 -64 163 -33 97 -63 181 -66 187 -6
9 -66 14 -115 9 -6 -1 -39 -84 -74 -186 l-64 -185 -39 107 c-21 60 -40 115
-42 123 -2 8 -4 15 -5 15 0 0 -13 38 -28 85 l-28 85 -141 3 -142 3 -35 -31z
m149 -110 c22 -9 18 -12 -20 -12 -41 0 -46 2 -40 12 7 12 32 12 60 0z"/>
<path d="M5935 5600 c-75 -38 -112 -105 -102 -186 10 -88 79 -142 236 -183
109 -29 135 -62 88 -117 -54 -62 -195 -31 -212 47 -4 16 -10 29 -13 28 -4 0
-33 -13 -64 -27 l-58 -27 24 -52 c100 -213 469 -166 482 61 6 112 -55 175
-209 216 -134 36 -171 70 -120 110 53 41 169 18 192 -39 8 -17 15 -31 17 -31
15 0 114 56 114 65 -1 26 -49 92 -88 120 -41 28 -50 30 -145 33 -86 2 -108 -1
-142 -18z"/>
<path d="M4327 5465 c-26 -7 -50 -8 -53 -4 -6 10 -117 8 -124 -2 -4 -6 -5
-441 -1 -497 1 -10 19 -12 68 -10 l68 3 0 155 c1 105 5 162 14 178 16 30 67
52 104 45 52 -10 59 -36 60 -218 l0 -165 68 0 69 0 0 166 c0 189 -10 240 -54
289 -56 61 -132 82 -219 60z"/>
<path d="M3614 4716 c-60 -14 -144 -57 -144 -75 0 -4 18 -16 40 -26 22 -10 37
-22 33 -28 -3 -6 -1 -7 5 -3 6 4 20 2 31 -4 14 -7 22 -7 26 1 4 6 14 8 22 5 8
-3 12 -2 9 3 -8 12 48 31 91 31 87 0 98 -50 25 -119 -51 -49 -194 -135 -223
-135 -10 0 -16 -2 -14 -5 3 -2 -10 -15 -27 -28 -18 -12 -27 -23 -21 -23 7 0
13 -12 15 -27 l3 -28 280 0 280 0 0 55 0 54 -112 1 c-62 0 -109 3 -105 6 26
22 80 47 88 41 5 -4 6 -3 2 2 -4 5 6 23 24 39 52 50 77 103 68 144 -10 40 -54
91 -87 99 -13 4 -21 9 -19 13 5 7 -2 8 -134 15 -64 4 -115 1 -156 -8z m144
-35 c11 -6 10 -10 -4 -15 -9 -3 -19 -4 -22 -1 -3 3 1 6 9 6 8 1 1 5 -16 9 -28
7 -28 8 -5 9 14 0 31 -3 38 -8z m-118 -18 c-14 -10 -27 -17 -30 -16 -3 1 -10
-3 -15 -7 -6 -5 -17 -4 -25 2 -12 8 -12 9 3 4 9 -3 17 -2 17 2 0 5 12 13 28
19 41 16 49 15 22 -4z m50 13 c0 -3 -4 -8 -10 -11 -5 -3 -10 -1 -10 4 0 6 5
11 10 11 6 0 10 -2 10 -4z m150 -6 c18 -12 2 -12 -25 0 -13 6 -15 9 -5 9 8 0
22 -4 30 -9z"/>
<path d="M4240 4712 c-85 -32 -107 -50 -134 -104 -19 -39 -26 -67 -26 -112 0
-64 15 -136 29 -136 4 0 12 -10 18 -23 6 -12 35 -36 64 -52 52 -29 59 -30 175
-30 117 0 122 1 170 30 60 38 89 80 104 151 23 110 -24 218 -115 263 -64 32
-219 39 -285 13z m180 -124 c28 -46 28 -150 0 -196 -26 -42 -44 -48 -85 -29
-26 12 -35 25 -44 61 -15 60 -14 95 4 129 8 15 9 25 4 21 -8 -4 -8 0 0 14 13
24 26 30 69 31 26 1 36 -5 52 -31z"/>
<path d="M4805 4717 c-62 -16 -148 -59 -145 -72 1 -6 28 -25 60 -42 l59 -33
47 25 c76 41 164 29 164 -21 0 -46 -93 -118 -290 -226 -28 -16 -31 -22 -28
-55 l3 -38 280 0 280 0 0 55 0 55 -87 -1 c-50 0 -88 3 -88 9 0 5 -7 4 -15 -3
-8 -6 -19 -10 -25 -8 -7 2 12 19 40 37 98 64 151 140 139 201 -8 36 -69 100
-96 100 -8 0 -12 4 -9 9 3 4 -7 9 -22 9 -15 1 -70 3 -122 6 -61 4 -113 1 -145
-7z"/>
<path d="M5607 4722 c-57 -2 -83 -7 -96 -20 -10 -9 -46 -44 -82 -76 -189 -174
-190 -175 -187 -220 l3 -40 155 -1 155 0 2 -44 c3 -72 2 -71 108 -71 60 0 95
4 95 11 0 5 6 7 13 3 10 -6 10 -4 0 7 -7 7 -13 28 -13 46 0 36 20 52 60 48 32
-3 36 4 32 59 -4 46 -4 46 -42 46 -48 0 -51 8 -50 135 1 55 1 105 1 110 -1 11
-28 12 -154 7z m-47 -217 c0 -34 -1 -35 -37 -35 l-37 0 34 35 c19 19 35 35 37
35 2 0 3 -16 3 -35z m140 -173 c0 -5 -7 -9 -15 -9 -8 0 -12 4 -9 9 3 4 9 8 15
8 5 0 9 -4 9 -8z m-55 -22 c3 -5 1 -10 -4 -10 -6 0 -11 5 -11 10 0 6 2 10 4
10 3 0 8 -4 11 -10z m48 -7 c-7 -2 -19 -2 -25 0 -7 3 -2 5 12 5 14 0 19 -2 13
-5z"/>
<path d="M3756 4595 c-4 -10 -2 -14 5 -9 6 4 15 0 20 -7 5 -8 9 -9 9 -3 0 6
-6 17 -14 23 -11 9 -15 8 -20 -4z"/>
<path d="M4672 4490 c0 -14 2 -19 5 -12 2 6 2 18 0 25 -3 6 -5 1 -5 -13z"/>
<path d="M3928 4393 c7 -3 16 -2 19 1 4 3 -2 6 -13 5 -11 0 -14 -3 -6 -6z"/>
<path d="M4157 4259 c7 -7 15 -10 18 -7 3 3 -2 9 -12 12 -14 6 -15 5 -6 -5z"/>
<path d="M6209 1845 c-28 -29 -38 -34 -66 -29 -45 7 -58 -2 -40 -30 13 -18 13
-25 1 -40 -17 -24 -10 -36 22 -36 29 0 41 -10 73 -63 35 -57 89 -80 77 -32 -5
20 -1 27 23 39 16 9 31 22 34 30 3 8 16 16 29 18 15 2 24 11 26 25 2 12 12 25
22 28 10 3 21 12 24 20 3 8 12 15 20 15 14 0 46 36 46 52 0 16 -46 7 -63 -12
-17 -21 -57 -28 -57 -10 0 6 -4 10 -10 10 -5 0 -10 -17 -10 -38 0 -51 -11 -60
-24 -20 -9 27 -17 34 -43 36 -30 3 -33 1 -33 -25 0 -15 7 -36 14 -46 17 -23
10 -54 -15 -60 -12 -3 -26 6 -44 30 -29 37 -31 32 28 106 17 21 25 41 21 51
-9 23 -18 20 -55 -19z"/>
<path d="M6077 1673 c-12 -19 -10 -72 2 -87 14 -17 71 -22 71 -7 0 5 12 11 27
13 32 4 42 25 16 35 -10 4 -25 15 -33 24 -17 19 -75 35 -83 22z m43 -53 c0 -5
-4 -10 -10 -10 -5 0 -10 5 -10 10 0 6 5 10 10 10 6 0 10 -4 10 -10z"/>
<path d="M5850 1626 c0 -19 10 -60 22 -92 21 -55 22 -56 31 -31 6 20 15 27 34
27 18 0 28 8 36 30 14 38 25 34 60 -18 45 -66 77 -50 41 20 -25 49 -47 67 -84
70 -31 3 -37 -1 -49 -30 -19 -41 -31 -37 -49 16 -17 52 -42 56 -42 8z"/>
<path d="M6331 1586 c-17 -20 -2 -49 21 -43 16 5 19 1 16 -21 -3 -23 1 -27 25
-30 19 -2 27 -8 25 -20 -4 -23 37 -29 46 -7 9 26 -4 64 -25 70 -10 4 -19 12
-19 20 0 37 -65 60 -89 31z"/>
<path d="M6231 1518 c-29 -10 -24 -43 7 -42 16 0 24 -7 29 -25 8 -37 22 -51
48 -51 27 0 58 32 53 57 -3 13 -11 17 -30 15 -20 -2 -27 3 -32 22 -7 27 -40
37 -75 24z"/>
<path d="M6138 1429 c-23 -13 -23 -30 2 -73 23 -38 43 -49 71 -41 14 5 19 16
19 46 0 34 -5 42 -32 59 -38 23 -37 23 -60 9z m49 -67 c-3 -14 -6 -12 -14 8
-6 14 -8 29 -5 34 7 13 24 -22 19 -42z"/>
<path d="M6024 1373 c-25 -27 -34 -70 -11 -57 6 4 18 16 25 26 18 25 32 14 32
-27 0 -48 9 -65 35 -65 24 0 37 12 49 44 5 16 2 18 -24 14 -28 -4 -29 -3 -25
24 11 62 -38 87 -81 41z"/>
<path d="M800 1160 c-25 -5 -61 -15 -80 -23 -42 -19 -106 -77 -115 -106 -3
-12 -10 -19 -15 -16 -4 3 -8 -5 -9 -18 -1 -12 -4 -61 -7 -109 -5 -65 -2 -100
11 -145 47 -161 249 -231 433 -148 l62 28 0 133 0 134 -116 0 -115 0 3 -47 3
-47 57 3 56 2 0 -61 c-1 -56 -3 -62 -25 -71 -33 -12 -113 -11 -154 2 -77 26
-117 115 -104 233 5 53 12 71 41 104 65 77 184 79 285 7 26 -18 50 -31 53 -28
9 9 7 106 -2 119 -9 14 -88 45 -127 50 -76 11 -93 11 -135 4z m137 -45 c19 -8
43 -15 53 -15 24 0 45 -26 29 -36 -8 -5 -9 -3 -4 6 5 8 3 11 -6 8 -8 -3 -28 1
-46 9 -45 18 -166 17 -204 -2 -30 -16 -59 -11 -41 7 13 13 101 35 145 37 21 0
54 -6 74 -14z m-224 -43 c3 -4 -7 -21 -21 -37 -14 -17 -23 -22 -19 -12 3 9 2
17 -2 17 -5 0 -14 -12 -19 -27 -6 -16 -11 -21 -11 -11 -1 18 45 78 59 78 5 0
11 -3 13 -8z m-73 -133 c0 -6 -4 -7 -10 -4 -5 3 -10 11 -10 16 0 6 5 7 10 4 6
-3 10 -11 10 -16z"/>
<path d="M3541 1157 c-71 -12 -125 -47 -162 -105 -41 -65 -52 -113 -47 -212 7
-130 47 -202 143 -253 32 -18 57 -22 125 -22 74 0 91 4 130 27 25 14 55 37 67
50 35 38 65 118 71 191 16 217 -127 359 -327 324z m139 -116 c46 -32 68 -88
69 -172 2 -139 -51 -209 -157 -209 -82 0 -141 70 -150 175 -11 147 61 243 173
229 22 -3 51 -13 65 -23z"/>
<path d="M3508 713 c7 -3 16 -2 19 1 4 3 -2 6 -13 5 -11 0 -14 -3 -6 -6z"/>
<path d="M1660 863 l0 -293 55 0 55 0 -2 291 -3 291 -53 2 -52 1 0 -292z m67
241 c-3 -3 -12 -4 -19 -1 -8 3 -5 6 6 6 11 1 17 -2 13 -5z m3 -35 c0 -18 -2
-19 -15 -5 -8 8 -15 17 -15 20 0 3 7 6 15 6 9 0 15 -9 15 -21z"/>
<path d="M2364 1151 c-2 -2 -4 -134 -4 -293 l0 -288 55 0 55 0 0 115 0 115 49
0 c33 0 56 -6 73 -20 26 -20 93 -139 84 -148 -3 -2 2 -11 10 -19 8 -9 13 -21
10 -28 -3 -9 15 -13 66 -14 38 -1 68 2 67 6 -27 62 -112 224 -120 229 -6 3 -8
12 -5 20 3 8 2 13 -2 13 -20 -3 -18 3 8 29 50 50 52 165 3 223 -45 53 -75 62
-216 63 -71 1 -131 -1 -133 -3z m43 -83 c-3 -7 -5 -2 -5 12 0 14 2 19 5 13 2
-7 2 -19 0 -25z m228 23 c-3 -5 5 -17 17 -25 12 -9 19 -16 14 -16 -4 0 -19 9
-32 19 -17 13 -20 21 -12 24 19 8 20 8 13 -2z m-23 -58 c11 -10 18 -30 18 -54
0 -53 -35 -79 -106 -79 l-54 0 0 81 0 82 62 -7 c35 -3 69 -13 80 -23z"/>
<path d="M4429 1151 c-2 -6 -3 -139 -1 -296 l3 -286 51 3 51 3 -2 193 c-1 125
1 192 8 188 17 -11 102 -179 97 -193 -3 -7 -1 -12 5 -10 5 1 29 -35 54 -80 25
-46 42 -83 37 -83 -4 0 0 -5 8 -10 8 -5 43 -10 78 -10 l62 0 0 289 0 289 -52
4 c-29 2 -54 4 -55 3 -1 -1 -3 -90 -3 -199 -1 -109 -3 -196 -5 -194 -18 20
-173 334 -168 341 3 6 2 7 -4 4 -6 -4 -15 5 -21 18 -10 22 -18 25 -61 25 -27
0 -56 3 -64 6 -8 3 -16 1 -18 -5z m312 -464 c-10 -9 -11 -8 -5 6 3 10 9 15 12
12 3 -3 0 -11 -7 -18z m93 2 c-6 -11 -24 -2 -24 11 0 5 7 7 15 4 8 -4 12 -10
9 -15z m-73 -36 c-8 -15 -10 -15 -11 -2 0 17 10 32 18 25 2 -3 -1 -13 -7 -23z
m44 7 c-3 -5 -12 -10 -18 -10 -7 0 -6 4 3 10 19 12 23 12 15 0z m30 0 c3 -5 1
-10 -4 -10 -6 0 -11 5 -11 10 0 6 2 10 4 10 3 0 8 -4 11 -10z m-335 -40 c0 -5
-7 -10 -15 -10 -8 0 -15 5 -15 10 0 6 7 10 15 10 8 0 15 -4 15 -10z m336 3
c-10 -10 -56 -12 -50 -1 3 4 17 8 31 8 15 0 23 -3 19 -7z"/>
<path d="M5610 1146 c-5 -5 -10 -16 -10 -23 0 -8 -8 -28 -17 -46 -9 -18 -18
-38 -19 -45 -4 -24 -97 -267 -107 -280 -6 -7 -12 -24 -13 -36 -3 -30 -38 -108
-45 -101 -3 3 -5 -5 -4 -18 1 -20 8 -22 57 -25 l55 -3 26 68 25 68 112 0 113
0 21 -65 22 -65 48 -3 c59 -4 82 3 68 21 -10 12 -80 192 -146 372 -19 50 -38
103 -45 118 -6 16 -8 33 -5 39 4 6 2 8 -4 4 -6 -3 -12 1 -14 11 -2 13 -15 17
-55 18 -29 1 -57 -3 -63 -9z m85 -205 c13 -34 21 -69 18 -78 -4 -11 -2 -14 5
-9 7 4 12 3 12 -3 0 -5 2 -16 6 -24 4 -11 -9 -15 -65 -16 -39 -1 -71 1 -71 5
0 12 65 193 68 190 1 -2 13 -31 27 -65z m-140 -181 c3 -5 1 -10 -4 -10 -6 0
-11 5 -11 10 0 6 2 10 4 10 3 0 8 -4 11 -10z m230 0 c3 -6 -1 -7 -9 -4 -18 7
-21 14 -7 14 6 0 13 -4 16 -10z m40 -19 c-3 -6 1 -13 9 -18 17 -9 57 -98 49
-107 -13 -13 -35 -6 -29 10 4 10 2 13 -6 8 -8 -5 -9 -2 -5 9 3 9 2 19 -4 23
-6 3 -8 12 -5 19 3 8 1 15 -3 17 -14 5 -24 48 -11 48 6 0 9 -4 5 -9z m-312
-38 c-7 -3 -9 -11 -6 -20 5 -12 3 -14 -6 -8 -10 5 -11 2 -6 -14 4 -12 2 -21
-4 -21 -6 0 -10 -5 -8 -12 1 -6 -6 -14 -15 -16 -10 -2 -18 1 -18 7 0 6 4 11
10 11 5 0 7 7 4 15 -4 8 -1 15 6 15 7 0 10 7 6 16 -4 10 -2 13 6 8 7 -5 9 -2
5 9 -6 16 11 28 28 19 5 -3 4 -7 -2 -9z"/>
</g>
</svg>
